<?xml version="1.0" encoding="UTF-8" standalone="no"?>
<!-- Created with Inkscape (http://www.inkscape.org/) -->

<svg
   version="1.1"
   id="svg1"
   width="1200"
   height="628"
   viewBox="0 0 1200 628"
   sodipodi:docname="hacker-image-ezgif.com-webp-to-jpg-converter.svg"
   inkscape:export-filename="hacker-image-ezgif.com-webp-to-jpg-converter.png"
   inkscape:export-xdpi="96"
   inkscape:export-ydpi="96"
   inkscape:version="1.3.2 (091e20e, 2023-11-25, custom)"
   xmlns:inkscape="http://www.inkscape.org/namespaces/inkscape"
   xmlns:sodipodi="http://sodipodi.sourceforge.net/DTD/sodipodi-0.dtd"
   xmlns:xlink="http://www.w3.org/1999/xlink"
   xmlns="http://www.w3.org/2000/svg"
   xmlns:svg="http://www.w3.org/2000/svg">
  <defs
     id="defs1" />
  <sodipodi:namedview
     id="namedview1"
     pagecolor="#ffffff"
     bordercolor="#000000"
     borderopacity="0.25"
     inkscape:showpageshadow="2"
     inkscape:pageopacity="0.0"
     inkscape:pagecheckerboard="0"
     inkscape:deskcolor="#d1d1d1"
     showgrid="false"
     showguides="true"
     inkscape:zoom="0.96833333"
     inkscape:cx="490.53356"
     inkscape:cy="177.10843"
     inkscape:window-width="1920"
     inkscape:window-height="1017"
     inkscape:window-x="-8"
     inkscape:window-y="32"
     inkscape:window-maximized="1"
     inkscape:current-layer="g1" />
  <g
     inkscape:groupmode="layer"
     inkscape:label="Image"
     id="g1">
    <text
       xml:space="preserve"
       style="font-size:85.3333px;font-family:'Arial Rounded MT Bold';-inkscape-font-specification:'Arial Rounded MT Bold, ';fill:#800000;fill-opacity:0.901961;paint-order:stroke fill markers"
       x="877.73737"
       y="384.10138"
       id="text7"><tspan
         sodipodi:role="line"
         id="tspan7"
         x="877.73737"
         y="384.10138" /></text>
    <text
       xml:space="preserve"
       style="font-size:16px;font-family:'Arial Rounded MT Bold';-inkscape-font-specification:'Arial Rounded MT Bold, ';fill:#d40000;fill-opacity:0.901961;paint-order:stroke fill markers"
       id="text10"
       y="50.385921"
       x="546.94281"><tspan
         sodipodi:role="line"
         id="tspan10"
         x="546.94281"
         y="50.385921" /></text>
    <g
       id="g13">
      <rect
         style="fill:#000000;fill-opacity:0.901961;stroke:#ff6600;stroke-width:0.1;stroke-dasharray:none;paint-order:stroke fill markers"
         id="rect12"
         width="1199.0389"
         height="627.99847"
         x="0"
         y="0" />
      <g
         id="g12"
         transform="matrix(2.1236083,0,0,1.2793983,-1274.1394,-112.66404)">
        <circle
           style="fill:#ffffff;fill-opacity:0.901961;stroke-width:0.804104;paint-order:stroke fill markers"
           id="path10"
           cx="-896.94073"
           cy="294.20206"
           r="218.81018"
           transform="rotate(-140.72767)" />
        <text
           xml:space="preserve"
           style="font-style:normal;font-variant:normal;font-weight:normal;font-stretch:normal;font-size:32px;font-family:'Bauhaus 93';-inkscape-font-specification:'Bauhaus 93, ';fill:#916f6f;fill-opacity:0.901961;stroke:#ff6600;paint-order:stroke fill markers"
           id="text11"><textPath
             xlink:href="#path10"
             id="textPath11"
             style="font-style:normal;font-variant:normal;font-weight:normal;font-stretch:normal;font-size:32px;font-family:'Bauhaus 93';-inkscape-font-specification:'Bauhaus 93, ';fill:#d40000;stroke:#ff6600">CHAP CHAP TECHNOLOGIES</textPath></text>
        <path
           id="path7"
           style="fill:#000000;fill-opacity:0.901961;stroke:#666666;stroke-width:10;stroke-dasharray:none;paint-order:stroke fill markers"
           d="M 719.71615,490.63031 A 215.08052,215.08052 0 0 0 1023.2257,510.66016 215.08052,215.08052 0 0 0 1043.2556,207.1506 215.08052,215.08052 0 0 0 739.74599,187.12073 215.08052,215.08052 0 0 0 719.71615,490.63031 Z" />
        <path
           id="path1"
           style="fill:#ffffff;fill-opacity:0.901961;stroke-width:0.960696;paint-order:stroke fill markers"
           d="m 900.64257,138.79692 c -2.20013,0.0236 -3.69253,0.33066 -3.69253,0.33066 l -3.82166,2.4151 c -3.82123,2.41483 -13.50201,3.37968 -13.50201,3.37968 l -0.0289,8.93695 -0.0269,-8.72869 c 0,0 -9.68078,-0.96486 -13.50202,-3.37967 l -3.82165,-2.4151 c 0,0 -1.4924,-0.30708 -3.69253,-0.33066 -4.84029,-0.0519 -13.10372,1.26529 -16.43137,10.23036 l -4.84115,13.04007 -9.68037,29.70278 c 0,0 -1.52779,13.28186 6.36943,19.31895 l 7.71653,5.69612 12.66368,4.68771 6.11311,1.68983 4.58483,0.9664 c 0,0 3.61233,0.49683 4.65999,0.56815 1.46934,0.10002 2.8407,0.1425 2.8407,0.1425 l 7.27521,0.4969 v -0.23931 l 6.82231,-0.46585 c 0,0 1.37137,-0.0425 2.84071,-0.14249 1.04766,-0.0714 4.65999,-0.56816 4.65999,-0.56816 l 4.58482,-0.9664 6.1131,-1.68984 12.66369,-4.6877 7.71654,-5.69612 c 7.89722,-6.03709 6.36942,-19.31896 6.36942,-19.31896 l -9.68036,-29.70277 -4.84115,-13.04007 c -3.32766,-8.96508 -11.59108,-10.28228 -16.43137,-10.23037 z m 32.33661,50.34803 1.0195,3.3815 0.25439,1.93281 v 3.13853 l -0.22356,3.3815 -0.85567,3.79254 -1.97732,3.93504 -2.00815,2.61422 -2.32421,2.24338 -3.31094,2.14472 -4.07605,2.4151 -4.2707,1.84695 -4.64457,1.7757 -4.07604,1.20572 -4.33236,1.45052 -7.1326,1.68984 -4.83922,0.99564 -6.20561,0.70881 -2.38202,0.17172 -2.65377,-0.0986 v 0.25759 l -1.33748,0.0493 -2.38203,-0.17173 -6.20561,-0.70882 -4.83921,-0.99563 -7.1326,-1.68983 -4.33236,-1.45052 -4.07605,-1.20573 -4.64458,-1.77569 -4.27068,-1.84695 -4.07605,-2.4151 -3.31094,-2.14472 -2.32422,-2.24338 -2.00814,-2.61422 -1.97732,-3.93504 -0.85568,-3.79254 -0.22356,-3.3815 v -3.13853 l 0.25439,-1.93282 1.0195,-3.38149 -26.49332,5.07133 c -26.49393,5.07116 -29.55181,13.76533 -29.55181,13.76533 l -1.01949,2.89738 -0.2544,2.65625 0.51071,1.69166 2.35313,2.99786 3.25312,2.29088 c 11.2262,7.91403 68.01502,16.68463 68.01502,16.68463 l -0.50879,7.24529 c 0,0 -0.50884,0.96646 2.29338,4.8302 2.80225,3.86373 6.3675,3.37967 6.3675,3.37967 l 15.541,-0.24115 3.05655,-1.20754 c 3.05699,-1.20742 4.07604,-5.79477 4.07604,-5.79477 l 0.2544,-7.00416 6.11503,0.24298 v -0.25759 l 4.86041,-0.19364 0.2544,7.00414 c -1e-5,0 1.01906,4.58735 4.07604,5.79477 l 3.05655,1.20756 15.54101,0.24114 c 0,0 3.56525,0.48405 6.3675,-3.37967 2.80222,-3.86375 2.29336,-4.8302 2.29336,-4.8302 l -0.50877,-7.2453 c 0,0 56.78882,-8.77059 68.01502,-16.68463 l 3.25312,-2.29087 2.35312,-2.99786 0.51071,-1.69167 -0.25439,-2.65624 -1.01949,-2.89739 c 0,0 -3.05789,-8.69417 -29.55181,-13.76532 z m -7.98056,64.42026 -12.22814,21.9752 c -12.22794,21.97499 -34.13662,21.73222 -34.13662,21.73222 v 0.0767 c -5.43503,-0.47285 -22.06423,-3.3721 -32.2075,-21.60069 l -12.22813,-21.97519 -73.87759,9.89971 40.50413,16.66271 -27.76721,12.07366 67.25377,27.53065 -60.37557,-21.73405 c 0,0 -16.5585,9.65898 -19.36072,23.66503 l -2.80217,14.00647 -13.24762,71.47922 c 0,0 -3.05659,13.52334 3.82165,19.31895 l 6.87821,5.79477 18.34123,11.35023 -5.348,-74.61957 c 0,0 1.27201,-11.10658 12.2262,-11.58954 l 10.95426,-0.48412 89.16419,0.9664 v -0.22836 l 87.23506,-0.94631 10.95424,0.48412 c 10.95421,0.48297 12.22622,11.58955 12.22622,11.58955 l -5.348,74.61957 18.34119,-11.35023 6.8782,-5.79477 c 6.8783,-5.79561 3.8217,-19.31895 3.8217,-19.31895 l -13.2476,-71.47922 -2.80221,-14.00647 c -2.80221,-14.00604 -19.36071,-23.66503 -19.36071,-23.66503 l -60.37556,21.73405 67.25376,-27.53065 -27.7672,-12.07366 40.50409,-16.66271 z M 879.133,360.99138 v 0.21009 l -99.44006,0.23931 c 0,0 -8.91599,-1.20684 -8.40649,8.69399 l 0.50879,9.8997 6.8782,91.76458 c 0,0 -0.25414,10.86726 9.17158,11.35022 l 9.42598,0.4823 83.04723,-0.24115 v -0.20461 l 81.60762,0.23749 9.42597,-0.48229 c 9.42572,-0.48296 9.17159,-11.35022 9.17159,-11.35022 l 6.8782,-91.76457 0.50878,-9.89972 c 0.50949,-9.90082 -8.40648,-8.69398 -8.40648,-8.69398 z m 96.97902,124.193 -97.31435,0.24116 v 0.20459 l -95.71284,-0.23748 c 0,0 -3.05656,0.72552 -3.05656,3.14036 v 2.41327 3.3815 c 0,0 -0.25363,4.10561 3.31287,3.62264 3.5665,-0.48296 4.33043,0 4.33043,0 l 92.7276,-0.24114 v -0.2046 l 91.12609,0.23748 c 0,0 0.76395,-0.48297 4.33045,0 3.56649,0.48297 3.31287,-3.62264 3.31287,-3.62264 v -3.38151 -2.41327 c 0,-2.41482 -3.05656,-3.14036 -3.05656,-3.14036 z" />
        <text
           xml:space="preserve"
           style="font-size:24px;font-family:'Arial Rounded MT Bold';-inkscape-font-specification:'Arial Rounded MT Bold, ';fill:#d40000;fill-opacity:0.901961;stroke:#f9f9f9;paint-order:stroke fill markers"
           id="text9"
           transform="translate(0,-4)"><textPath
             xlink:href="#path7"
             id="textPath9"
             style="font-size:24px;fill:#ff7f2a;stroke:#f9f9f9">IT CONSULTANCY &amp; SERVICES</textPath></text>
        <text
           xml:space="preserve"
           style="font-style:normal;font-variant:normal;font-weight:normal;font-stretch:normal;font-size:77.2383px;font-family:'Bauhaus 93';-inkscape-font-specification:'Bauhaus 93, ';fill:#ff0000;fill-opacity:0.901961;stroke:#ff6600;stroke-width:0.321825;stroke-dasharray:none;paint-order:stroke fill markers"
           x="849.10522"
           y="428.76056"
           id="text12"
           transform="scale(0.9493052,1.053402)"
           inkscape:transform-center-x="-2.1906923"><tspan
             sodipodi:role="line"
             id="tspan11"
             x="849.10522"
             y="428.76056"
             style="font-style:normal;font-variant:normal;font-weight:normal;font-stretch:normal;font-family:'Microsoft YaHei';-inkscape-font-specification:'Microsoft YaHei';stroke-width:0.321825">&lt;?&gt;</tspan></text>
      </g>
    </g>
  </g>
</svg>
