<?xml version="1.0" encoding="UTF-8" standalone="no"?>
<!-- Created with Inkscape (http://www.inkscape.org/) -->

<svg
   width="297mm"
   height="210mm"
   viewBox="0 0 1122.5197 793.70081"
   version="1.1"
   id="svg1"
   xml:space="preserve"
   inkscape:version="1.3.2 (091e20e, 2023-11-25, custom)"
   sodipodi:docname="ladder.svg"
   inkscape:export-filename="COVENT OF HOLLINESS LOGO.png"
   inkscape:export-xdpi="96"
   inkscape:export-ydpi="96"
   xmlns:inkscape="http://www.inkscape.org/namespaces/inkscape"
   xmlns:sodipodi="http://sodipodi.sourceforge.net/DTD/sodipodi-0.dtd"
   xmlns="http://www.w3.org/2000/svg"
   xmlns:svg="http://www.w3.org/2000/svg"><sodipodi:namedview
     id="namedview1"
     pagecolor="#ffffff"
     bordercolor="#000000"
     borderopacity="0.25"
     inkscape:showpageshadow="2"
     inkscape:pageopacity="0.0"
     inkscape:pagecheckerboard="0"
     inkscape:deskcolor="#d1d1d1"
     inkscape:document-units="mm"
     inkscape:zoom="0.89571167"
     inkscape:cx="483.41449"
     inkscape:cy="458.2948"
     inkscape:window-width="1920"
     inkscape:window-height="1017"
     inkscape:window-x="-8"
     inkscape:window-y="32"
     inkscape:window-maximized="1"
     inkscape:current-layer="layer1"
     showguides="true" /><defs
     id="defs1" /><g
     inkscape:label="Layer 1"
     inkscape:groupmode="layer"
     id="layer1"
     style="display:inline"><g
       id="g7"
       transform="matrix(8.6275831,0,0,1.241082,-8721.1586,-104.77974)"><path
         id="rect4-1-7-5"
         style="fill:#ff0000;fill-opacity:0.901961;stroke:#ff6600;stroke-width:0.0444184;paint-order:stroke fill markers"
         d="m 1113.33,132.815 7.56,-0.344 1.55,-3.3 -7.38,0.339 z m 0.83,3.487 7.75,-0.349 -1.16,-3.184 -7.57,0.344 z m -2.08,4.032 7.96,-0.355 1.65,-3.655 -7.76,0.35 z m 0.84,3.882 8.18,-0.362 -1.2,-3.545 -7.98,0.357 z m -2.17,4.462 8.4,-0.368 1.77,-4.069 -8.19,0.362 z m 0.85,4.344 8.65,-0.375 -1.25,-3.969 -8.43,0.369 z m -2.41,5.029 8.91,-0.382 1.9,-4.56 -8.67,0.375 z m 0.86,4.895 9.18,-0.388 -1.3,-4.475 -8.93,0.382 z m -2.6,5.512 9.47,-0.395 2.05,-5.137 -9.2,0.388 z m 0.86,5.548 9.77,-0.402 -1.34,-5.073 -9.5,0.395 z m -2.86,6.439 10.12,-0.408 2.23,-5.845 -9.81,0.403 z m 0.85,6.351 10.47,-0.416 -1.4,-5.811 -10.14,0.41 z m -3.14,7.448 10.85,-0.423 2.44,-6.712 -10.5,0.416 z m 0.83,7.345 11.26,-0.43 -1.45,-6.724 -10.88,0.423 z m -3.47,8.571 11.7,-0.436 2.69,-7.785 -11.3,0.429 z m 0.79,8.584 12.18,-0.442 -1.5,-7.865 -11.75,0.437 z m -3.26,9.83 12.7,-0.447 2.96,-9.124 -12.22,0.442 z m 0.76,10.147 13.25,-0.453 -1.57,-9.302 -12.75,0.448 z m -4.38,11.946 13.89,-0.457 3.33,-10.863 -13.31,0.453 z m 0.66,12.199 14.55,-0.459 -1.62,-11.194 -13.93,0.457 z m -4.9,14.368 15.3,-0.46 3.79,-13.146 -14.61,0.46 z m 0.5,14.932 16.12,-0.459 -1.65,-13.713 -15.38,0.46 z m -5.86,17.837 17.06,-0.452 4.39,-16.249 -16.21,0.458 z m 0.25,18.703 18.08,-0.443 -1.66,-17.196 -17.14,0.452 z m -6.91,21.919 19.24,-0.427 5.17,-20.524 -18.16,0.442 z m -0.17,24.005 20.54,-0.402 -1.6,-22.101 -19.34,0.425 z m -8.56,29.414 22.09,-0.363 6.27,-26.861 -20.67,0.399 z m -0.88,32.063 23.83,-0.308 -1.43,-29.57 -22.23,0.359 z m -10.96,40.425 25.96,-0.223 7.9,-36.725 -24.03,0.301 z m -2.17,45.029 28.4,-0.105 -1,-41.62 -26.15,0.215 z m -14.66,57.948 31.44,0.081 10.46,-53.16 -28.65,0.091 z m -4.63,67.656 35.09,0.347 -0.01,-62.726 -31.72,-0.099 z" /></g></g><path
     style="display:none;fill:#916f6f;fill-opacity:0.901961;stroke:#ff6600;stroke-width:0.1;paint-order:stroke fill markers"
     d="m 727.91283,129.50596 c -185.3275,515.791 -185.3275,515.791 -185.3275,515.791 l 155.18387,2.23286 63.63655,-520.25672 z"
     id="path9" /></svg>
